<?xml version="1.0" encoding="utf-8"?>
<svg id="svg" style="display: block;" width="256" height="256" xmlns="http://www.w3.org/2000/svg">
  <g id="svgg" transform="matrix(0.639776, 0, 0, 0.640091, 0.044784, 0.219551)">
    <path id="path0" d="M285.200 71.335 C 278.295 73.661,271.995 78.605,270.319 83.013 C 269.310 85.668,267.770 85.947,261.764 84.562 C 258.814 83.881,251.360 82.194,245.200 80.813 C 239.040 79.431,230.996 77.557,227.324 76.648 C 218.933 74.571,218.752 74.718,215.229 86.400 C 213.836 91.020,212.384 95.700,212.003 96.800 C 211.621 97.900,210.521 101.500,209.557 104.800 C 208.593 108.100,207.173 112.780,206.400 115.200 C 205.627 117.620,204.248 122.120,203.334 125.200 C 199.061 139.608,200.957 137.967,187.600 138.814 C 164.081 140.305,138.666 147.823,121.556 158.351 L 117.765 160.684 113.483 157.918 C 96.637 147.041,75.537 154.299,68.900 173.253 C 64.952 184.526,69.293 198.426,78.779 204.886 L 81.589 206.800 81.595 215.750 C 81.606 234.352,88.132 248.994,102.598 262.870 C 108.094 268.142,116.935 275.200,118.042 275.200 C 118.323 275.200,119.569 275.924,120.811 276.808 C 151.414 298.599,215.024 303.933,258.263 288.335 C 300.098 273.242,328.670 238.679,322.388 210.761 C 321.562 207.091,321.622 206.712,323.205 205.600 C 339.569 194.108,342.084 176.372,329.395 161.957 C 320.455 151.801,302.161 149.709,290.952 157.561 L 286.648 160.577 279.524 156.696 C 260.822 146.510,241.989 141.107,218.453 139.176 C 207.187 138.251,207.535 138.646,210.326 129.970 C 211.594 126.026,214.138 117.760,215.978 111.600 C 222.909 88.408,223.812 85.522,224.281 85.052 C 224.762 84.571,235.109 86.560,248.000 89.611 C 256.908 91.719,261.376 92.706,264.800 93.320 C 268.723 94.023,269.446 94.812,270.068 99.065 C 274.381 128.574,318.483 122.537,315.788 92.807 C 314.455 78.107,298.449 66.871,285.200 71.335 M170.502 177.927 C 179.031 181.491,183.602 191.013,180.430 198.606 C 173.227 215.844,146.400 211.582,146.400 193.200 C 146.400 181.627,159.497 173.328,170.502 177.927 M256.950 179.649 C 270.667 189.279,263.766 209.600,246.778 209.600 C 231.067 209.600,223.636 190.502,235.475 180.549 C 241.011 175.895,251.006 175.476,256.950 179.649 M247.311 249.551 C 254.238 255.241,230.862 267.090,212.547 267.172 C 209.108 267.187,205.528 267.611,204.590 268.112 C 196.935 272.209,164.667 262.646,159.492 254.747 C 156.526 250.221,162.044 247.122,166.724 250.685 C 183.002 263.077,223.683 263.587,238.800 251.588 C 241.711 249.278,243.518 248.235,244.911 248.063 C 245.193 248.028,246.273 248.698,247.311 249.551 " stroke="none" fill="#fafafa" fill-rule="evenodd"/>
    <path id="path1" d="M45.000 0.578 C 43.130 0.751,41.600 1.231,41.600 1.646 C 41.600 2.061,40.880 2.400,40.000 2.400 C 39.120 2.400,38.400 2.760,38.400 3.200 C 38.400 3.640,37.399 4.000,36.177 4.000 C 34.871 4.000,33.477 4.660,32.800 5.600 C 32.166 6.480,31.006 7.200,30.223 7.200 C 29.441 7.200,28.800 7.560,28.800 8.000 C 28.800 8.440,28.224 8.800,27.521 8.800 C 26.818 8.800,25.233 9.880,24.000 11.200 C 22.767 12.520,21.362 13.600,20.879 13.600 C 20.396 13.600,18.560 15.040,16.800 16.800 C 15.040 18.560,13.600 20.396,13.600 20.879 C 13.600 21.362,12.520 22.767,11.200 24.000 C 9.880 25.233,8.800 26.818,8.800 27.521 C 8.800 28.224,8.440 28.800,8.000 28.800 C 7.560 28.800,7.200 29.441,7.200 30.223 C 7.200 31.006,6.480 32.166,5.600 32.800 C 4.660 33.477,4.000 34.871,4.000 36.177 C 4.000 37.399,3.640 38.400,3.200 38.400 C 2.760 38.400,2.400 39.090,2.400 39.933 C 2.400 40.777,1.950 41.617,1.400 41.800 C -0.070 42.290,-0.070 357.710,1.400 358.200 C 1.950 358.383,2.400 359.223,2.400 360.067 C 2.400 360.910,2.760 361.600,3.200 361.600 C 3.640 361.600,4.000 362.601,4.000 363.823 C 4.000 365.129,4.660 366.523,5.600 367.200 C 6.480 367.834,7.200 368.994,7.200 369.777 C 7.200 370.559,7.560 371.200,8.000 371.200 C 8.440 371.200,8.800 371.776,8.800 372.479 C 8.800 373.182,9.880 374.767,11.200 376.000 C 12.520 377.233,13.600 378.638,13.600 379.121 C 13.600 380.265,19.735 386.400,20.879 386.400 C 21.362 386.400,22.767 387.480,24.000 388.800 C 25.233 390.120,26.818 391.200,27.521 391.200 C 28.224 391.200,28.800 391.560,28.800 392.000 C 28.800 392.440,29.441 392.800,30.223 392.800 C 31.006 392.800,32.166 393.520,32.800 394.400 C 33.477 395.340,34.871 396.000,36.177 396.000 C 37.399 396.000,38.400 396.360,38.400 396.800 C 38.400 397.240,39.090 397.600,39.933 397.600 C 40.777 397.600,41.617 398.050,41.800 398.600 C 42.065 399.395,74.418 399.600,200.000 399.600 C 325.582 399.600,357.935 399.395,358.200 398.600 C 358.383 398.050,359.223 397.600,360.067 397.600 C 360.910 397.600,361.600 397.240,361.600 396.800 C 361.600 396.360,362.601 396.000,363.823 396.000 C 365.129 396.000,366.523 395.340,367.200 394.400 C 367.834 393.520,368.994 392.800,369.777 392.800 C 370.559 392.800,371.200 392.440,371.200 392.000 C 371.200 391.560,371.776 391.200,372.479 391.200 C 373.182 391.200,374.767 390.120,376.000 388.800 C 377.233 387.480,378.638 386.400,379.121 386.400 C 380.265 386.400,386.400 380.265,386.400 379.121 C 386.400 378.638,387.480 377.233,388.800 376.000 C 390.120 374.767,391.200 373.182,391.200 372.479 C 391.200 371.776,391.560 371.200,392.000 371.200 C 392.440 371.200,392.800 370.559,392.800 369.777 C 392.800 368.994,393.520 367.834,394.400 367.200 C 395.340 366.523,396.000 365.129,396.000 363.823 C 396.000 362.601,396.360 361.600,396.800 361.600 C 397.240 361.600,397.600 360.910,397.600 360.067 C 397.600 359.223,398.050 358.383,398.600 358.200 C 400.070 357.710,400.070 42.290,398.600 41.800 C 398.050 41.617,397.600 40.777,397.600 39.933 C 397.600 39.090,397.240 38.400,396.800 38.400 C 396.360 38.400,396.000 37.399,396.000 36.177 C 396.000 34.871,395.340 33.477,394.400 32.800 C 393.520 32.166,392.800 31.006,392.800 30.223 C 392.800 29.441,392.440 28.800,392.000 28.800 C 391.560 28.800,391.200 28.224,391.200 27.521 C 391.200 26.818,390.120 25.233,388.800 24.000 C 387.480 22.767,386.400 21.362,386.400 20.879 C 386.400 19.735,380.265 13.600,379.121 13.600 C 378.638 13.600,377.233 12.520,376.000 11.200 C 374.767 9.880,373.182 8.800,372.479 8.800 C 371.776 8.800,371.200 8.440,371.200 8.000 C 371.200 7.560,370.559 7.200,369.777 7.200 C 368.994 7.200,367.834 6.480,367.200 5.600 C 366.523 4.660,365.129 4.000,363.823 4.000 C 362.601 4.000,361.600 3.640,361.600 3.200 C 361.600 2.760,360.910 2.400,360.067 2.400 C 359.223 2.400,358.383 1.950,358.200 1.400 C 357.884 0.452,54.971 -0.343,45.000 0.578 M297.907 71.345 C 315.135 76.290,321.634 97.829,309.753 110.604 C 295.849 125.553,272.967 118.900,270.068 99.065 C 269.446 94.812,268.723 94.023,264.800 93.320 C 261.376 92.706,256.908 91.719,248.000 89.611 C 235.109 86.560,224.762 84.571,224.281 85.052 C 223.812 85.522,222.909 88.408,215.978 111.600 C 214.138 117.760,211.594 126.026,210.326 129.970 C 207.535 138.646,207.187 138.251,218.453 139.176 C 241.989 141.107,260.822 146.510,279.524 156.696 L 286.648 160.577 290.952 157.561 C 302.161 149.709,320.455 151.801,329.395 161.957 C 342.084 176.372,339.569 194.108,323.205 205.600 C 321.622 206.712,321.562 207.091,322.388 210.761 C 328.670 238.679,300.098 273.242,258.263 288.335 C 215.024 303.933,151.414 298.599,120.811 276.808 C 119.569 275.924,118.323 275.200,118.042 275.200 C 116.935 275.200,108.094 268.142,102.598 262.870 C 88.132 248.994,81.606 234.352,81.595 215.750 L 81.589 206.800 78.779 204.886 C 69.293 198.426,64.952 184.526,68.900 173.253 C 75.537 154.299,96.637 147.041,113.483 157.918 L 117.765 160.684 121.556 158.351 C 138.666 147.823,164.081 140.305,187.600 138.814 C 200.957 137.967,199.061 139.608,203.334 125.200 C 204.248 122.120,205.627 117.620,206.400 115.200 C 207.173 112.780,208.593 108.100,209.557 104.800 C 210.521 101.500,211.621 97.900,212.003 96.800 C 212.384 95.700,213.836 91.020,215.229 86.400 C 218.752 74.718,218.933 74.571,227.324 76.648 C 230.996 77.557,239.040 79.431,245.200 80.813 C 251.360 82.194,258.814 83.881,261.764 84.562 C 267.770 85.947,269.310 85.668,270.319 83.013 C 273.600 74.382,287.706 68.417,297.907 71.345 M155.920 178.393 C 145.701 183.794,143.179 195.998,150.649 203.898 C 163.969 217.984,187.710 203.956,179.692 186.737 C 175.635 178.023,164.208 174.012,155.920 178.393 M239.600 177.939 C 223.122 185.903,228.494 209.600,246.778 209.600 C 269.287 209.600,270.232 177.876,247.750 177.003 C 243.951 176.855,241.186 177.173,239.600 177.939 M243.200 248.587 C 242.540 248.841,240.560 250.191,238.800 251.588 C 223.683 263.587,183.002 263.077,166.724 250.685 C 163.535 248.257,161.168 248.295,159.526 250.800 C 156.477 255.454,165.739 262.192,180.400 265.984 C 187.454 267.808,202.658 269.146,204.590 268.112 C 205.528 267.611,209.108 267.187,212.547 267.172 C 230.862 267.090,254.238 255.241,247.311 249.551 C 245.314 247.910,245.095 247.859,243.200 248.587 " stroke="none" fill="#ff4500" fill-rule="evenodd"/>
  </g>
</svg>